<svg xmlns="http://www.w3.org/2000/svg" viewBox="0 0 512 512" style="transform: scale(0.5);"><svg xmlns="http://www.w3.org/2000/svg" width="512" height="512" viewBox="0 0 512 512" data-svgdocument="" id="_BM0fv_aJ_ZZWWYek1ZRVa" class="fl-svgdocument" x="0" y="0" overflow="hidden" data-bbox="1.4210854715202004e-14 162.30671019952473 553.9815565822078 173.2329883943342" style=""><g id="_CZsm_wCQ7c3IgxeylXQiM" transform="matrix(0.6845966106141859, 0, 0, 0.6845966106141859, -22.890676658685436, 75.30580243102014)"><path id="_nYrdhAiyt-4ci4TBfdLLz" d="M47.69 90.25c-0.069 0-0.14-0.006-0.21-0.02l-34.722-6.439c-0.624-0.115-1.036-0.715-0.921-1.34   c0.116-0.623 0.717-1.037 1.34-0.92l33.245 6.164l-1.82-22.307l-18.92-53.09c-0.214-0.598 0.099-1.256 0.697-1.469   c0.598-0.213 1.255 0.099 1.469 0.697L46.819 64.76c0.033 0.094 0.055 0.191 0.062 0.293l1.955 23.953   c0.028 0.357-0.11 0.707-0.376 0.947C48.248 90.145 47.973 90.25 47.69 90.25z" fill="#ffab4a" transform="matrix(2.3875880241394043, 0, 0, 2.3875880241394043, 24.424518585205078, 128.12120056152344)"/><path id="_7-TNYczNWwjvDZVmHMsj0" d="M47.689 90.25c-0.183 0-0.367-0.043-0.54-0.135c-0.561-0.301-0.772-0.996-0.474-1.557l33.803-63.391   c0.299-0.56 0.995-0.772 1.556-0.474c0.56 0.299 0.771 0.996 0.474 1.556L48.705 89.641C48.498 90.029 48.101 90.25 47.689 90.25z" fill="#ff6b4a" transform="matrix(2.3875880241394043, 0, 0, 2.3875880241394043, 23.89333724975586, 128.6082305908203)"/><path id="_HmtDiMQRhI5IEVQ9RVaWU" d="M45.737 66.295c-0.077 0-0.155-0.008-0.233-0.023l0 0c-0.001 0-0.002 0-0.002 0c-0.017-0.004-0.032-0.008-0.047-0.012l0 0   c-0.003 0-0.004 0-0.006-0.002l0 0c-0.213-0.055-0.396-0.164-0.539-0.312L10.716 31.75L6.281 55.965   c-0.114 0.625-0.714 1.037-1.338 0.924c-0.625-0.115-1.038-0.715-0.924-1.338l4.829-26.37c0.076-0.42 0.381-0.763 0.788-0.891   c0.408-0.127 0.854-0.018 1.155 0.285l34.292 34.292l9.896-42.656l-28.495-7.184c-0.526-0.132-0.888-0.614-0.868-1.156   s0.416-0.997 0.949-1.091l32.653-5.749c0.38-0.067 0.769 0.062 1.033 0.341c0.266 0.28 0.373 0.675 0.286 1.051l-2.81 12.109   l24.046 6.062c0.391 0.099 0.702 0.396 0.819 0.782c0.116 0.386 0.022 0.806-0.249 1.105L46.603 65.9   c-0.065 0.076-0.141 0.143-0.224 0.197c0 0.002-0.001 0.002-0.001 0.002c-0.001 0-0.001 0-0.002 0l-0.001 0.002   c-0.001 0-0.001 0-0.001 0c-0.017 0.012-0.032 0.021-0.049 0.031c-0.001 0-0.001 0-0.001 0c-0.001 0-0.001 0-0.002 0.002h-0.001   c-0.001 0-0.001 0-0.001 0C46.146 66.238 45.945 66.295 45.737 66.295z M57.209 20.773l-9.354 40.323l31.499-34.74L57.209 20.773z    M32.262 12.112l23.237 5.858l2.406-10.373L32.262 12.112z" fill="#ff4a4a" transform="matrix(2.3875880241394043, 0, 0, 2.3875880241394043, 23.886180877685547, 128.81785583496094)"/><path id="_-g4FECiGjDeGPmN7mAvTs" d="M12.968 83.811c-0.145 0-0.287-0.027-0.419-0.078c-0.101-0.041-0.197-0.094-0.285-0.162   c-0.15-0.117-0.273-0.273-0.353-0.457c-0.02-0.047-0.037-0.096-0.05-0.143L4.046 56.078c-0.136-0.471 0.039-0.975 0.438-1.258   l51.203-36.386c0.455-0.323 1.075-0.273 1.473 0.117s0.457 1.01 0.143 1.47L16.579 79.428l28.615-15.297   c0.166-0.088 0.353-0.135 0.542-0.135h46.606L80.492 26.358L58.655 7.024c-0.475-0.421-0.52-1.147-0.098-1.623   c0.42-0.475 1.147-0.52 1.622-0.099l22.075 19.545c0.156 0.139 0.272 0.317 0.335 0.516l12.417 39.437   c0.109 0.348 0.047 0.729-0.17 1.023c-0.217 0.297-0.561 0.471-0.927 0.471H46.024L13.532 83.664   c-0.051 0.027-0.104 0.053-0.159 0.074c-0.069 0.025-0.141 0.045-0.212 0.057C13.097 83.807 13.032 83.811 12.968 83.811z    M6.482 56.221l6.912 23.785l38.356-55.953L6.482 56.221z" fill="#ff954a" transform="matrix(2.3875880241394043, 0, 0, 2.3875880241394043, 23.98843765258789, 128.7154083251953)"/><path id="_lH_QpX3A2RgCO2VtGtMus" fill="#ff4a4a" transform="matrix(2.3875880241394043, 0, 0, 2.3875880241394043, 24.87227439880371, 128.0879364013672)" data-type="circle" data-cx="55.538" data-cy="19.677" data-r="4.901" d="M55.538,19.677m-4.901,0a4.901,4.901 0 1, 0 9.802,0a4.901,4.901 0 1, 0 -9.802,0"/><path id="_zwePDHih4GevDIq5w3Req" fill="#ff6b4a" transform="matrix(2.3875880241394043, 0, 0, 2.3875880241394043, 25.028173446655273, 128.2785186767578)" data-type="circle" data-cx="23.472" data-cy="42.596" data-r="4.9" d="M23.472,42.596m-4.9,0a4.9,4.9 0 1, 0 9.8,0a4.9,4.9 0 1, 0 -9.8,0"/><path id="__bp6clTczT-DT51RP1Js7" fill="#ff954a" transform="matrix(2.3875880241394043, 0, 0, 2.3875880241394043, 24.40011978149414, 129.35693359375)" data-type="circle" data-cx="45.736" data-cy="65.145" data-r="4.901" d="M45.736,65.145m-4.901,0a4.901,4.901 0 1, 0 9.802,0a4.901,4.901 0 1, 0 -9.802,0"/><path id="_4I73MY35XrjAje_94NhqE" fill="#ffab4a" transform="matrix(2.3875880241394043, 0, 0, 2.3875880241394043, 23.846981048583984, 128.12213134765625)" data-type="circle" data-cx="12.968" data-cy="82.662" data-r="4.901" d="M12.968,82.662m-4.901,0a4.901,4.901 0 1, 0 9.802,0a4.901,4.901 0 1, 0 -9.802,0"/><path id="_Em4M5ckx9HQ3l5_UxbT-2" fill="#ffab4a" transform="matrix(2.3875880241394043, 0, 0, 2.3875880241394043, 24.331098556518555, 128.38638305664062)" data-type="circle" data-cx="81.493" data-cy="25.552" data-r="4.901" d="M81.493,25.552m-4.901,0a4.901,4.901 0 1, 0 9.802,0a4.901,4.901 0 1, 0 -9.802,0"/><path id="_MuuO6Z994e7NcdK4w4UM3" fill="#ff6b4a" transform="matrix(2.3875880241394043, 0, 0, 2.3875880241394043, 24.50743865966797, 129.4617462158203)" data-type="circle" data-cx="47.69" data-cy="89.1" data-r="4.9" d="M47.69,89.1m-4.9,0a4.9,4.9 0 1, 0 9.8,0a4.9,4.9 0 1, 0 -9.8,0"/></g><path id="_Z0YrQ9icz1cHOvm_GQPbH" fill="#000000" transform="matrix(0.4619972137290832, 0, 0, 0.4619972137290832, 91.81742768768775, 278.5565627152102)" text="DeeplyStocked" text-anchor="start" font-size="100" letter-spacing="0" side="left" offset="0" dx="0" dy="0" space="preserve" href="" font-family="Bungee" font-scale="contain" x="0" y="0" data-fl-textpath="" d="M 44.2 0L 44.2 0L 10.5 0Q 8.6 0  7.75-0.85Q 6.9-1.7  6.9-3.6L 6.9-3.6L 6.9-68.4Q 6.9-70.3  7.75-71.15Q 8.6-72  10.5-72L 10.5-72L 44.2-72Q 56.7-72  62.75-67Q 68.8-62  68.8-51.6L 68.8-51.6L 68.8-20.4Q 68.8-10  62.75-5Q 56.7 0  44.2 0ZM 41.5-52.9L 29.6-52.9L 29.6-18.9L 41.5-18.9Q 43.9-18.9  45.05-20.1Q 46.2-21.3  46.2-23.8L 46.2-23.8L 46.2-48.1Q 46.2-50.6  45.05-51.75Q 43.9-52.9  41.5-52.9L 41.5-52.9ZM 131.5 0L 131.5 0L 85.10000000000001 0Q 83.2 0  82.35000000000001-0.85Q 81.50000000000001-1.7  81.50000000000001-3.6L 81.50000000000001-3.6L 81.50000000000001-68.4Q 81.50000000000001-70.3  82.35000000000001-71.15Q 83.2-72  85.10000000000001-72L 85.10000000000001-72L 131.5-72Q 133.4-72  134.25-71.15Q 135.10000000000002-70.3  135.10000000000002-68.4L 135.10000000000002-68.4L 135.10000000000002-56.7Q 135.10000000000002-54.8  134.25-53.95Q 133.4-53.1  131.5-53.1L 131.5-53.1L 103.9-53.1L 103.9-45.4L 123.4-45.4Q 125.30000000000001-45.4  126.15-44.55Q 127-43.7  127-41.8L 127-41.8L 127-31.1Q 127-29.2  126.15-28.35Q 125.30000000000001-27.5  123.4-27.5L 123.4-27.5L 103.9-27.5L 103.9-18.9L 131.5-18.9Q 133.4-18.9  134.25-18.05Q 135.10000000000002-17.2  135.10000000000002-15.3L 135.10000000000002-15.3L 135.10000000000002-3.6Q 135.10000000000002-1.7  134.25-0.85Q 133.4 0  131.5 0ZM 196.9 0L 196.9 0L 150.5 0Q 148.6 0  147.75-0.85Q 146.9-1.7  146.9-3.6L 146.9-3.6L 146.9-68.4Q 146.9-70.3  147.75-71.15Q 148.6-72  150.5-72L 150.5-72L 196.9-72Q 198.8-72  199.65-71.15Q 200.5-70.3  200.5-68.4L 200.5-68.4L 200.5-56.7Q 200.5-54.8  199.65-53.95Q 198.8-53.1  196.9-53.1L 196.9-53.1L 169.3-53.1L 169.3-45.4L 188.8-45.4Q 190.7-45.4  191.55-44.55Q 192.4-43.7  192.4-41.8L 192.4-41.8L 192.4-31.1Q 192.4-29.2  191.55-28.35Q 190.7-27.5  188.8-27.5L 188.8-27.5L 169.3-27.5L 169.3-18.9L 196.9-18.9Q 198.8-18.9  199.65-18.05Q 200.5-17.2  200.5-15.3L 200.5-15.3L 200.5-3.6Q 200.5-1.7  199.65-0.85Q 198.8 0  196.9 0ZM 231.4 0L 231.4 0L 215.9 0Q 214 0  213.15-0.85Q 212.3-1.7  212.3-3.6L 212.3-3.6L 212.3-68.4Q 212.3-70.3  213.15-71.15Q 214-72  215.9-72L 215.9-72L 246.5-72Q 260.1-72  265.1-66.6Q 270.1-61.2  270.1-52.5L 270.1-52.5L 270.1-39.7Q 270.1-31  265.1-25.6Q 260.1-20.2  246.5-20.2L 246.5-20.2L 235-20.2L 235-3.6Q 235-1.7  234.15-0.85Q 233.3 0  231.4 0ZM 243.8-53.3L 234.8-53.3L 234.8-38.2L 243.8-38.2Q 246.7-38.2  247.60000000000002-39.7Q 248.5-41.2  248.5-43.1L 248.5-43.1L 248.5-48.4Q 248.5-50.3  247.60000000000002-51.8Q 246.7-53.3  243.8-53.3L 243.8-53.3ZM 335 0L 335 0L 284.1 0Q 282.20000000000005 0  281.35-0.85Q 280.5-1.7  280.5-3.6L 280.5-3.6L 280.5-68.4Q 280.5-70.3  281.35-71.15Q 282.20000000000005-72  284.1-72L 284.1-72L 299.6-72Q 301.5-72  302.35-71.15Q 303.20000000000005-70.3  303.20000000000005-68.4L 303.20000000000005-68.4L 303.20000000000005-18.9L 316.90000000000003-18.9L 316.90000000000003-35.1Q 316.90000000000003-37  317.75-37.85Q 318.6-38.7  320.5-38.7L 320.5-38.7L 335-38.7Q 336.90000000000003-38.7  337.75-37.85Q 338.6-37  338.6-35.1L 338.6-35.1L 338.6-3.6Q 338.6-1.7  337.75-0.85Q 336.90000000000003 0  335 0ZM 381.5 0L 381.5 0L 365.3 0Q 363.40000000000003 0  362.55-0.85Q 361.70000000000005-1.7  361.70000000000005-3.6L 361.70000000000005-3.6L 361.70000000000005-16.4L 346.40000000000003-36.9Q 344.1-40  343.35-42.3Q 342.6-44.6  342.6-49.2L 342.6-49.2L 342.6-68.4Q 342.6-70.3  343.45000000000005-71.15Q 344.3-72  346.20000000000005-72L 346.20000000000005-72L 361.6-72Q 363.5-72  364.35-71.15Q 365.20000000000005-70.3  365.20000000000005-68.4L 365.20000000000005-68.4L 365.20000000000005-52Q 365.20000000000005-51  365.3-49.9Q 365.40000000000003-48.8  366.1-47.8L 366.1-47.8L 370.70000000000005-40.6Q 371.20000000000005-39.7  371.75-39.3Q 372.3-38.9  373.1-38.9L 373.1-38.9L 374.1-38.9Q 374.90000000000003-38.9  375.45000000000005-39.3Q 376-39.7  376.5-40.6L 376.5-40.6L 381.1-47.8Q 381.8-48.8  381.90000000000003-49.9Q 382-51  382-52L 382-52L 382-68.4Q 382-70.3  382.85-71.15Q 383.70000000000005-72  385.6-72L 385.6-72L 400.5-72Q 402.40000000000003-72  403.25-71.15Q 404.1-70.3  404.1-68.4L 404.1-68.4L 404.1-49.2Q 404.1-44.6  403.3-42.3Q 402.5-40  400.3-36.9L 400.3-36.9L 385.1-16.3L 385.1-3.6Q 385.1-1.7  384.25-0.85Q 383.40000000000003 0  381.5 0ZM 448.90000000000003 0L 448.90000000000003 0L 417.3 0Q 415.40000000000003 0  414.55-0.85Q 413.70000000000005-1.7  413.70000000000005-3.6L 413.70000000000005-3.6L 413.70000000000005-15.3Q 413.70000000000005-17.2  414.55-18.05Q 415.40000000000003-18.9  417.3-18.9L 417.3-18.9L 444.20000000000005-18.9Q 445.5-18.9  446.15000000000003-19.75Q 446.8-20.6  446.8-21.8L 446.8-21.8Q 446.8-23.5  446.15000000000003-24.3Q 445.5-25.1  444.20000000000005-25.2L 444.20000000000005-25.2L 429.20000000000005-27.3Q 422.20000000000005-28.3  417.95000000000005-31.9Q 413.70000000000005-35.5  413.70000000000005-43.9L 413.70000000000005-43.9L 413.70000000000005-54.4Q 413.70000000000005-62.9  419.20000000000005-67.45Q 424.70000000000005-72  434.40000000000003-72L 434.40000000000003-72L 462.40000000000003-72Q 464.3-72  465.15000000000003-71.15Q 466-70.3  466-68.4L 466-68.4L 466-56.5Q 466-54.6  465.15000000000003-53.75Q 464.3-52.9  462.40000000000003-52.9L 462.40000000000003-52.9L 439.1-52.9Q 437.8-52.9  437.1-52.05Q 436.40000000000003-51.2  436.40000000000003-49.9L 436.40000000000003-49.9Q 436.40000000000003-48.6  437.1-47.7Q 437.8-46.8  439.1-46.7L 439.1-46.7L 454-44.7Q 461-43.7  465.3-40.1Q 469.6-36.5  469.6-28.1L 469.6-28.1L 469.6-17.6Q 469.6-9.1  464.05-4.55Q 458.5 0  448.90000000000003 0ZM 513.5 0L 513.5 0L 497.3 0Q 495.40000000000003 0  494.55-0.85Q 493.70000000000005-1.7  493.70000000000005-3.6L 493.70000000000005-3.6L 493.70000000000005-52.7L 479-52.7Q 477.1-52.7  476.25-53.55Q 475.40000000000003-54.4  475.40000000000003-56.3L 475.40000000000003-56.3L 475.40000000000003-68.4Q 475.40000000000003-70.3  476.25-71.15Q 477.1-72  479-72L 479-72L 531.8000000000001-72Q 533.7-72  534.5500000000001-71.15Q 535.4-70.3  535.4-68.4L 535.4-68.4L 535.4-56.3Q 535.4-54.4  534.5500000000001-53.55Q 533.7-52.7  531.8000000000001-52.7L 531.8000000000001-52.7L 517.1-52.7L 517.1-3.6Q 517.1-1.7  516.25-0.85Q 515.4 0  513.5 0ZM 605.6-53L 605.6-18.9Q 605.6-14.3  604.25-10.55Q 602.9000000000001-6.8  599.45-4.15Q 596-1.5  589.95 0Q 583.9000000000001 1.5  574.6 1.5L 574.6 1.5Q 565.3000000000001 1.5  559.2 0Q 553.1-1.5  549.6500000000001-4.15Q 546.2-6.8  544.85-10.55Q 543.5-14.3  543.5-18.9L 543.5-18.9L 543.5-53Q 543.5-57.6  544.85-61.35Q 546.2-65.1  549.6500000000001-67.8Q 553.1-70.5  559.2-72Q 565.3000000000001-73.5  574.6-73.5L 574.6-73.5Q 583.9000000000001-73.5  589.95-72Q 596-70.5  599.45-67.8Q 602.9000000000001-65.1  604.25-61.35Q 605.6-57.6  605.6-53L 605.6-53ZM 566.2-49.4L 566.2-22.5Q 566.2-20.5  567.7-19.15Q 569.2-17.8  574.6-17.8L 574.6-17.8Q 580-17.8  581.5-19.15Q 583-20.5  583-22.5L 583-22.5L 583-49.4Q 583-51.3  581.5-52.65Q 580-54  574.6-54L 574.6-54Q 569.2-54  567.7-52.65Q 566.2-51.3  566.2-49.4L 566.2-49.4ZM 666.2 0L 666.2 0L 641.8000000000001 0Q 629.3000000000001 0  623.2500000000001-5Q 617.2-10  617.2-20.4L 617.2-20.4L 617.2-51.5Q 617.2-61.9  623.2500000000001-66.95Q 629.3000000000001-72  641.8000000000001-72L 641.8000000000001-72L 666.2-72Q 668.1000000000001-72  668.95-71.15Q 669.8000000000001-70.3  669.8000000000001-68.4L 669.8000000000001-68.4L 669.8000000000001-56.3Q 669.8000000000001-54.4  668.95-53.55Q 668.1000000000001-52.7  666.2-52.7L 666.2-52.7L 646.1000000000001-52.7Q 643.0000000000001-52.7  641.5000000000001-51.45Q 640.0000000000001-50.2  640.0000000000001-47.7L 640.0000000000001-47.7L 640.0000000000001-23.9Q 640.0000000000001-21.4  641.5000000000001-20.25Q 643.0000000000001-19.1  646.1000000000001-19.1L 646.1000000000001-19.1L 666.2-19.1Q 668.1000000000001-19.1  668.95-18.25Q 669.8000000000001-17.4  669.8000000000001-15.5L 669.8000000000001-15.5L 669.8000000000001-3.6Q 669.8000000000001-1.7  668.95-0.85Q 668.1000000000001 0  666.2 0ZM 700.2 0L 700.2 0L 684.7 0Q 682.8000000000001 0  681.95-0.85Q 681.1-1.7  681.1-3.6L 681.1-3.6L 681.1-68.4Q 681.1-70.3  681.95-71.15Q 682.8000000000001-72  684.7-72L 684.7-72L 700.2-72Q 702.1-72  702.95-71.15Q 703.8000000000001-70.3  703.8000000000001-68.4L 703.8000000000001-68.4L 703.8000000000001-45.4L 707.8000000000001-45.4L 718.1-68.7Q 718.8000000000001-70.5  720-71.25Q 721.2-72  723.1-72L 723.1-72L 738.5-72Q 740.2-72  740.8000000000001-71.15Q 741.4000000000001-70.3  740.7-68.7L 740.7-68.7L 730.5-45.4Q 736.1-45.1  739.45-41.45Q 742.8000000000001-37.8  742.8000000000001-31.8L 742.8000000000001-31.8L 742.8000000000001-3.6Q 742.8000000000001-1.7  741.95-0.85Q 741.1 0  739.2 0L 739.2 0L 723.8000000000001 0Q 721.9000000000001 0  721.0500000000001-0.85Q 720.2-1.7  720.2-3.6L 720.2-3.6L 720.2-23.1Q 720.2-24.7  719.4000000000001-25.6Q 718.6-26.5  717-26.5L 717-26.5L 703.8000000000001-26.5L 703.8000000000001-3.6Q 703.8000000000001-1.7  702.95-0.85Q 702.1 0  700.2 0ZM 805.7 0L 805.7 0L 759.3000000000001 0Q 757.4000000000001 0  756.5500000000001-0.85Q 755.7-1.7  755.7-3.6L 755.7-3.6L 755.7-68.4Q 755.7-70.3  756.5500000000001-71.15Q 757.4000000000001-72  759.3000000000001-72L 759.3000000000001-72L 805.7-72Q 807.6-72  808.45-71.15Q 809.3000000000001-70.3  809.3000000000001-68.4L 809.3000000000001-68.4L 809.3000000000001-56.7Q 809.3000000000001-54.8  808.45-53.95Q 807.6-53.1  805.7-53.1L 805.7-53.1L 778.1-53.1L 778.1-45.4L 797.6-45.4Q 799.5000000000001-45.4  800.35-44.55Q 801.2-43.7  801.2-41.8L 801.2-41.8L 801.2-31.1Q 801.2-29.2  800.35-28.35Q 799.5000000000001-27.5  797.6-27.5L 797.6-27.5L 778.1-27.5L 778.1-18.9L 805.7-18.9Q 807.6-18.9  808.45-18.05Q 809.3000000000001-17.2  809.3000000000001-15.3L 809.3000000000001-15.3L 809.3000000000001-3.6Q 809.3000000000001-1.7  808.45-0.85Q 807.6 0  805.7 0ZM 858.4000000000001 0L 858.4000000000001 0L 824.7 0Q 822.8000000000001 0  821.95-0.85Q 821.1-1.7  821.1-3.6L 821.1-3.6L 821.1-68.4Q 821.1-70.3  821.95-71.15Q 822.8000000000001-72  824.7-72L 824.7-72L 858.4000000000001-72Q 870.9000000000001-72  876.95-67Q 883-62  883-51.6L 883-51.6L 883-20.4Q 883-10  876.95-5Q 870.9000000000001 0  858.4000000000001 0ZM 855.7-52.9L 843.8000000000001-52.9L 843.8000000000001-18.9L 855.7-18.9Q 858.1-18.9  859.25-20.1Q 860.4000000000001-21.3  860.4000000000001-23.8L 860.4000000000001-23.8L 860.4000000000001-48.1Q 860.4000000000001-50.6  859.25-51.75Q 858.1-52.9  855.7-52.9L 855.7-52.9Z"/></svg></svg>