<svg id="Logo_Navbar" data-name="Logo Navbar" xmlns="http://www.w3.org/2000/svg" width="146.415" height="42.764" viewBox="0 0 146.415 42.764">
  <path id="Trazado_35" data-name="Trazado 35" d="M21.031,90.977a.826.826,0,0,1-.1-.008L4.3,87.883a.551.551,0,0,1-.441-.641A.557.557,0,0,1,4.5,86.8l15.918,2.953L19.551,79.07,10.492,53.648a.55.55,0,1,1,1.035-.371L20.613,78.77a.45.45,0,0,1,.027.141l.938,11.473a.546.546,0,0,1-.18.453A.559.559,0,0,1,21.031,90.977Zm0,0" transform="translate(0.001 -50.279)" fill="#ffab4a"/>
  <path id="Trazado_36" data-name="Trazado 36" d="M20.922,91.074a.517.517,0,0,1-.258-.066.545.545,0,0,1-.227-.742L36.625,59.91a.55.55,0,1,1,.973.516L21.41,90.781A.552.552,0,0,1,20.922,91.074Zm0,0" transform="translate(0.001 -50.279)" fill="#ff6b4a"/>
  <path id="Trazado_37" data-name="Trazado 37" d="M19.988,79.645a.558.558,0,0,1-.113-.012c-.008,0-.016,0-.023,0h0a.542.542,0,0,1-.258-.152L3.215,63.1,1.094,74.7a.552.552,0,0,1-1.086-.2L2.32,61.871a.561.561,0,0,1,.379-.426.55.55,0,0,1,.551.137L19.672,78l4.742-20.426L10.766,54.137a.55.55,0,0,1,.039-1.074l15.637-2.754a.551.551,0,0,1,.633.664l-1.348,5.8,11.516,2.9a.561.561,0,0,1,.395.375.553.553,0,0,1-.121.527L20.4,79.457a.63.63,0,0,1-.109.094.082.082,0,0,1-.023.016h0A.531.531,0,0,1,19.988,79.645Zm5.492-21.8L21,77.156,36.086,60.52ZM13.535,53.7,24.66,56.5l1.152-4.969Zm0,0" transform="translate(0.001 -50.279)" fill="#ff4a4a"/>
  <path id="Trazado_38" data-name="Trazado 38" d="M4.316,88.012a.585.585,0,0,1-.2-.035.686.686,0,0,1-.137-.078.62.62,0,0,1-.168-.219l-.023-.07L.043,74.73a.549.549,0,0,1,.211-.6L24.773,56.707a.546.546,0,0,1,.7.055.552.552,0,0,1,.07.7L6.043,85.914l13.7-7.324a.555.555,0,0,1,.262-.066H42.324L36.648,60.5,26.191,51.242a.551.551,0,1,1,.73-.824l10.57,9.359a.511.511,0,0,1,.16.246L43.6,78.91a.553.553,0,0,1-.527.715H20.145L4.586,87.941a.475.475,0,0,1-.078.035.433.433,0,0,1-.1.027A.365.365,0,0,1,4.316,88.012ZM1.211,74.8,4.52,86.191l18.367-26.8Zm0,0" transform="translate(0.001 -50.279)" fill="#ff954a"/>
  <path id="Trazado_39" data-name="Trazado 39" d="M22.531,57.176a2.346,2.346,0,1,0,2.348-2.348,2.347,2.347,0,0,0-2.348,2.348" transform="translate(0.001 -50.279)" fill="#ff4a4a"/>
  <path id="Trazado_40" data-name="Trazado 40" d="M7.207,68.188a2.346,2.346,0,1,0,2.348-2.344,2.347,2.347,0,0,0-2.348,2.344" transform="translate(0.001 -50.279)" fill="#ff6b4a"/>
  <path id="Trazado_41" data-name="Trazado 41" d="M17.742,79.2a2.348,2.348,0,1,0,2.348-2.348A2.347,2.347,0,0,0,17.742,79.2" transform="translate(0.001 -50.279)" fill="#ff954a"/>
  <path id="Trazado_42" data-name="Trazado 42" d="M1.941,87.344A2.346,2.346,0,1,0,4.285,85a2.346,2.346,0,0,0-2.344,2.348" transform="translate(0.001 -50.279)" fill="#ffab4a"/>
  <path id="Trazado_43" data-name="Trazado 43" d="M34.852,60.047A2.348,2.348,0,1,0,37.2,57.7a2.347,2.347,0,0,0-2.348,2.344" transform="translate(0.001 -50.279)" fill="#ffab4a"/>
  <path id="Trazado_44" data-name="Trazado 44" d="M18.7,90.7a2.348,2.348,0,1,0,2.348-2.348A2.347,2.347,0,0,0,18.7,90.7" transform="translate(0.001 -50.279)" fill="#ff6b4a"/>
  <path id="Trazado_45" data-name="Trazado 45" d="M32.883,81.609H28.32a.422.422,0,0,1-.488-.488v-8.77a.418.418,0,0,1,.488-.488h4.563a3.9,3.9,0,0,1,2.512.676,2.564,2.564,0,0,1,.816,2.086v4.223a2.55,2.55,0,0,1-.816,2.082A3.881,3.881,0,0,1,32.883,81.609Zm-.367-7.16H30.906v4.6h1.609A.627.627,0,0,0,33,78.887a.685.685,0,0,0,.156-.5V75.1A.659.659,0,0,0,33,74.605.641.641,0,0,0,32.516,74.449ZM44.7,81.609H38.418a.422.422,0,0,1-.488-.488v-8.77a.418.418,0,0,1,.488-.488H44.7a.52.52,0,0,1,.371.113.513.513,0,0,1,.113.375v1.582a.5.5,0,0,1-.113.371.5.5,0,0,1-.371.117H40.961v1.043H43.6a.5.5,0,0,1,.371.113.5.5,0,0,1,.117.371V77.4a.422.422,0,0,1-.488.488H40.961v1.164H44.7a.52.52,0,0,1,.371.113.513.513,0,0,1,.113.375v1.582a.5.5,0,0,1-.113.371A.5.5,0,0,1,44.7,81.609Zm8.852,0H47.27a.422.422,0,0,1-.488-.488v-8.77a.418.418,0,0,1,.488-.488h6.281a.418.418,0,0,1,.488.488v1.582a.422.422,0,0,1-.488.488H49.816v1.043h2.637a.5.5,0,0,1,.371.113.5.5,0,0,1,.117.371V77.4a.422.422,0,0,1-.488.488H49.816v1.164h3.734a.418.418,0,0,1,.488.488v1.582a.422.422,0,0,1-.488.488Zm4.668,0h-2.1a.5.5,0,0,1-.371-.117.5.5,0,0,1-.117-.371v-8.77a.514.514,0,0,1,.117-.375.52.52,0,0,1,.371-.113h4.141a3.381,3.381,0,0,1,2.52.731,2.711,2.711,0,0,1,.676,1.91v1.73a2.711,2.711,0,0,1-.676,1.91,3.4,3.4,0,0,1-2.52.73H58.707v2.246a.418.418,0,0,1-.488.488Zm1.68-7.215H58.68v2.043H59.9a.555.555,0,0,0,.516-.2.912.912,0,0,0,.121-.461v-.715a.911.911,0,0,0-.121-.461A.555.555,0,0,0,59.9,74.395Zm12.344,7.215H65.352a.5.5,0,0,1-.371-.117.5.5,0,0,1-.113-.371v-8.77a.513.513,0,0,1,.113-.375.52.52,0,0,1,.371-.113h2.1a.415.415,0,0,1,.488.488v6.7h1.855V76.859a.415.415,0,0,1,.488-.488h1.961a.418.418,0,0,1,.488.488v4.262a.422.422,0,0,1-.488.488Zm6.293,0H76.344a.422.422,0,0,1-.488-.488V79.387l-2.07-2.773a2.768,2.768,0,0,1-.414-.73,3.259,3.259,0,0,1-.1-.934v-2.6a.418.418,0,0,1,.488-.488h2.086a.52.52,0,0,1,.371.113.513.513,0,0,1,.113.375V74.57c0,.09.008.184.016.285a.538.538,0,0,0,.109.281l.621.977a.576.576,0,0,0,.141.176.319.319,0,0,0,.184.055h.137a.319.319,0,0,0,.184-.055.576.576,0,0,0,.141-.176l.621-.977a.538.538,0,0,0,.109-.281c.008-.1.016-.2.016-.285V72.352a.513.513,0,0,1,.113-.375.52.52,0,0,1,.371-.113h2.02a.414.414,0,0,1,.484.488v2.6a3.1,3.1,0,0,1-.106.934,3.228,3.228,0,0,1-.406.73L79.023,79.4v1.719a.422.422,0,0,1-.488.488Zm9.125,0H83.383a.418.418,0,0,1-.488-.488V79.539a.415.415,0,0,1,.488-.488h3.641a.305.305,0,0,0,.262-.117.437.437,0,0,0,.09-.277.523.523,0,0,0-.09-.336.341.341,0,0,0-.262-.121l-2.031-.285a2.914,2.914,0,0,1-1.523-.625,2.018,2.018,0,0,1-.574-1.621V74.246a2.156,2.156,0,0,1,.742-1.766,3.149,3.149,0,0,1,2.059-.617h3.789a.415.415,0,0,1,.488.488v1.609a.418.418,0,0,1-.488.488H86.332a.334.334,0,0,0-.27.113.456.456,0,0,0-.1.293.475.475,0,0,0,.1.3.364.364,0,0,0,.27.137l2.016.27a2.985,2.985,0,0,1,1.531.621,2.016,2.016,0,0,1,.582,1.625v1.422a2.155,2.155,0,0,1-.75,1.766A3.156,3.156,0,0,1,87.66,81.609Zm8.742,0H94.211a.418.418,0,0,1-.488-.488V74.477H91.734a.418.418,0,0,1-.488-.488V72.352a.415.415,0,0,1,.488-.488h7.145a.418.418,0,0,1,.488.488v1.637a.422.422,0,0,1-.488.488H96.891v6.645a.422.422,0,0,1-.488.488Zm12.465-7.176v4.617a3.229,3.229,0,0,1-.183,1.129,1.862,1.862,0,0,1-.649.867,3.507,3.507,0,0,1-1.285.563,8.984,8.984,0,0,1-2.078.2,9.083,9.083,0,0,1-2.086-.2,3.5,3.5,0,0,1-1.289-.562,1.869,1.869,0,0,1-.652-.867,3.3,3.3,0,0,1-.184-1.129V74.434a3.316,3.316,0,0,1,.184-1.129,1.928,1.928,0,0,1,.652-.875,3.435,3.435,0,0,1,1.289-.566,8.87,8.87,0,0,1,2.086-.2,8.774,8.774,0,0,1,2.078.2,3.443,3.443,0,0,1,1.285.566,1.921,1.921,0,0,1,.649.875A3.244,3.244,0,0,1,108.867,74.434Zm-5.332.488v3.641a.583.583,0,0,0,.2.453,2.465,2.465,0,0,0,1.867,0,.58.58,0,0,0,.2-.453V74.922a.574.574,0,0,0-.2-.441,2.514,2.514,0,0,0-1.867,0A.576.576,0,0,0,103.535,74.922Zm13.535,6.688h-3.3a3.882,3.882,0,0,1-2.512-.68,2.54,2.54,0,0,1-.82-2.082V74.637a2.567,2.567,0,0,1,.82-2.09,3.857,3.857,0,0,1,2.512-.684h3.3a.419.419,0,0,1,.489.488v1.637a.423.423,0,0,1-.489.488h-2.718a.961.961,0,0,0-.625.168.618.618,0,0,0-.2.508v3.223a.576.576,0,0,0,.2.492,1.013,1.013,0,0,0,.625.156h2.718a.419.419,0,0,1,.489.488v1.609a.423.423,0,0,1-.489.488Zm4.6,0h-2.1a.422.422,0,0,1-.488-.488v-8.77a.418.418,0,0,1,.488-.488h2.1a.418.418,0,0,1,.488.488v3.113h.539l1.4-3.156a.665.665,0,0,1,.258-.344.8.8,0,0,1,.421-.1h2.082a.37.37,0,0,1,.313.113.325.325,0,0,1-.016.332l-1.379,3.156a1.684,1.684,0,0,1,1.211.535,1.854,1.854,0,0,1,.454,1.3v3.816a.419.419,0,0,1-.489.488h-2.082a.422.422,0,0,1-.488-.488V78.48a.472.472,0,0,0-.109-.336.407.407,0,0,0-.325-.121H122.16v3.1a.422.422,0,0,1-.488.488Zm14.281,0h-6.281a.422.422,0,0,1-.488-.488v-8.77a.418.418,0,0,1,.488-.488h6.281a.519.519,0,0,1,.371.113.514.514,0,0,1,.114.375v1.582a.5.5,0,0,1-.114.371.5.5,0,0,1-.371.117h-3.738v1.043h2.64a.417.417,0,0,1,.489.484V77.4a.422.422,0,0,1-.489.488h-2.64v1.164h3.738a.519.519,0,0,1,.371.113.514.514,0,0,1,.114.375v1.582a.5.5,0,0,1-.114.371A.5.5,0,0,1,135.953,81.609Zm7.133,0h-4.563a.422.422,0,0,1-.488-.488v-8.77a.418.418,0,0,1,.488-.488h4.563a3.892,3.892,0,0,1,2.508.676,2.553,2.553,0,0,1,.82,2.086v4.223a2.539,2.539,0,0,1-.82,2.082A3.869,3.869,0,0,1,143.086,81.609Zm-.367-7.16h-1.61v4.6h1.61a.625.625,0,0,0,.48-.164.683.683,0,0,0,.156-.5V75.1a.657.657,0,0,0-.156-.492A.638.638,0,0,0,142.719,74.449Zm0,0" transform="translate(0.001 -50.279)" fill="#fff"/>
</svg>
