<?xml version="1.0" encoding="UTF-8"?>
<svg xmlns="http://www.w3.org/2000/svg" xmlns:xlink="http://www.w3.org/1999/xlink" viewBox="0 0 150 100" version="1.1">
<g id="surface1">
<path style=" stroke:none;fill-rule:nonzero;fill:rgb(100%,67.058824%,29.019608%);fill-opacity:1;" d="M 21.03125 90.976562 C 20.996094 90.976562 20.960938 90.972656 20.929688 90.96875 L 4.300781 87.882812 C 4.003906 87.828125 3.804688 87.542969 3.859375 87.242188 C 3.917969 86.945312 4.203125 86.746094 4.503906 86.800781 L 20.421875 89.753906 L 19.550781 79.070312 L 10.492188 53.648438 C 10.386719 53.363281 10.539062 53.046875 10.824219 52.945312 C 11.109375 52.84375 11.425781 52.992188 11.527344 53.277344 L 20.613281 78.769531 C 20.628906 78.816406 20.640625 78.863281 20.640625 78.910156 L 21.578125 90.382812 C 21.59375 90.550781 21.527344 90.71875 21.398438 90.835938 C 21.296875 90.925781 21.164062 90.976562 21.03125 90.976562 Z M 21.03125 90.976562 "/>
<path style=" stroke:none;fill-rule:nonzero;fill:rgb(100%,41.960784%,29.019608%);fill-opacity:1;" d="M 20.921875 91.074219 C 20.835938 91.074219 20.746094 91.054688 20.664062 91.007812 C 20.394531 90.867188 20.292969 90.53125 20.4375 90.265625 L 36.625 59.910156 C 36.765625 59.640625 37.101562 59.539062 37.371094 59.679688 C 37.636719 59.824219 37.738281 60.160156 37.597656 60.425781 L 21.410156 90.78125 C 21.308594 90.96875 21.121094 91.074219 20.921875 91.074219 Z M 20.921875 91.074219 "/>
<path style=" stroke:none;fill-rule:nonzero;fill:rgb(100%,29.019608%,29.019608%);fill-opacity:1;" d="M 19.988281 79.644531 C 19.949219 79.644531 19.914062 79.640625 19.875 79.632812 C 19.867188 79.632812 19.859375 79.628906 19.851562 79.628906 C 19.851562 79.628906 19.847656 79.628906 19.847656 79.628906 C 19.746094 79.601562 19.660156 79.550781 19.589844 79.476562 L 3.214844 63.101562 L 1.09375 74.699219 C 1.039062 74.996094 0.75 75.195312 0.453125 75.140625 C 0.152344 75.085938 -0.046875 74.796875 0.0078125 74.5 L 2.320312 61.871094 C 2.359375 61.671875 2.503906 61.507812 2.699219 61.445312 C 2.894531 61.386719 3.109375 61.4375 3.25 61.582031 L 19.671875 78.003906 L 24.414062 57.578125 L 10.765625 54.136719 C 10.515625 54.074219 10.339844 53.84375 10.351562 53.582031 C 10.359375 53.324219 10.550781 53.105469 10.804688 53.0625 L 26.441406 50.308594 C 26.625 50.277344 26.808594 50.335938 26.9375 50.472656 C 27.0625 50.605469 27.117188 50.792969 27.074219 50.972656 L 25.726562 56.773438 L 37.242188 59.675781 C 37.429688 59.722656 37.578125 59.867188 37.636719 60.050781 C 37.691406 60.234375 37.644531 60.4375 37.515625 60.578125 L 20.402344 79.457031 C 20.371094 79.492188 20.332031 79.523438 20.292969 79.550781 C 20.285156 79.558594 20.277344 79.5625 20.269531 79.566406 C 20.265625 79.566406 20.265625 79.566406 20.265625 79.566406 C 20.183594 79.617188 20.085938 79.644531 19.988281 79.644531 Z M 25.480469 57.847656 L 21 77.15625 L 36.085938 60.519531 Z M 13.535156 53.699219 L 24.660156 56.503906 L 25.8125 51.535156 Z M 13.535156 53.699219 "/>
<path style=" stroke:none;fill-rule:nonzero;fill:rgb(100%,58.431373%,29.019608%);fill-opacity:1;" d="M 4.316406 88.011719 C 4.246094 88.011719 4.175781 88 4.113281 87.976562 C 4.066406 87.957031 4.019531 87.929688 3.976562 87.898438 C 3.90625 87.839844 3.847656 87.765625 3.808594 87.679688 C 3.800781 87.65625 3.792969 87.632812 3.785156 87.609375 L 0.0429688 74.730469 C -0.0234375 74.507812 0.0625 74.265625 0.253906 74.128906 L 24.773438 56.707031 C 24.988281 56.550781 25.285156 56.574219 25.476562 56.761719 C 25.667969 56.949219 25.695312 57.246094 25.546875 57.464844 L 6.042969 85.914062 L 19.746094 78.589844 C 19.828125 78.546875 19.914062 78.523438 20.007812 78.523438 L 42.324219 78.523438 L 36.648438 60.5 L 26.191406 51.242188 C 25.964844 51.039062 25.945312 50.691406 26.144531 50.464844 C 26.347656 50.238281 26.695312 50.214844 26.921875 50.417969 L 37.492188 59.777344 C 37.570312 59.84375 37.625 59.929688 37.652344 60.023438 L 43.601562 78.910156 C 43.652344 79.074219 43.621094 79.257812 43.519531 79.398438 C 43.414062 79.539062 43.25 79.625 43.074219 79.625 L 20.144531 79.625 L 4.585938 87.941406 C 4.5625 87.953125 4.535156 87.96875 4.507812 87.976562 C 4.476562 87.988281 4.441406 88 4.40625 88.003906 C 4.375 88.011719 4.34375 88.011719 4.316406 88.011719 Z M 1.210938 74.800781 L 4.519531 86.191406 L 22.886719 59.394531 Z M 1.210938 74.800781 "/>
<path style=" stroke:none;fill-rule:nonzero;fill:rgb(100%,29.019608%,29.019608%);fill-opacity:1;" d="M 22.53125 57.175781 C 22.53125 58.472656 23.582031 59.523438 24.878906 59.523438 C 26.171875 59.523438 27.222656 58.472656 27.222656 57.175781 C 27.222656 55.878906 26.171875 54.828125 24.878906 54.828125 C 23.582031 54.828125 22.53125 55.878906 22.53125 57.175781 "/>
<path style=" stroke:none;fill-rule:nonzero;fill:rgb(100%,41.960784%,29.019608%);fill-opacity:1;" d="M 7.207031 68.1875 C 7.207031 69.484375 8.257812 70.535156 9.554688 70.535156 C 10.847656 70.535156 11.898438 69.484375 11.898438 68.1875 C 11.898438 66.890625 10.847656 65.84375 9.554688 65.84375 C 8.257812 65.84375 7.207031 66.890625 7.207031 68.1875 "/>
<path style=" stroke:none;fill-rule:nonzero;fill:rgb(100%,58.431373%,29.019608%);fill-opacity:1;" d="M 17.742188 79.203125 C 17.742188 80.5 18.792969 81.550781 20.089844 81.550781 C 21.386719 81.550781 22.4375 80.5 22.4375 79.203125 C 22.4375 77.90625 21.386719 76.855469 20.089844 76.855469 C 18.792969 76.855469 17.742188 77.90625 17.742188 79.203125 "/>
<path style=" stroke:none;fill-rule:nonzero;fill:rgb(100%,67.058824%,29.019608%);fill-opacity:1;" d="M 1.941406 87.34375 C 1.941406 88.640625 2.992188 89.691406 4.285156 89.691406 C 5.582031 89.691406 6.632812 88.640625 6.632812 87.34375 C 6.632812 86.046875 5.582031 84.996094 4.285156 84.996094 C 2.992188 84.996094 1.941406 86.046875 1.941406 87.34375 "/>
<path style=" stroke:none;fill-rule:nonzero;fill:rgb(100%,67.058824%,29.019608%);fill-opacity:1;" d="M 34.851562 60.046875 C 34.851562 61.34375 35.902344 62.394531 37.199219 62.394531 C 38.496094 62.394531 39.546875 61.34375 39.546875 60.046875 C 39.546875 58.753906 38.496094 57.703125 37.199219 57.703125 C 35.902344 57.703125 34.851562 58.753906 34.851562 60.046875 "/>
<path style=" stroke:none;fill-rule:nonzero;fill:rgb(100%,41.960784%,29.019608%);fill-opacity:1;" d="M 18.699219 90.695312 C 18.699219 91.992188 19.75 93.042969 21.046875 93.042969 C 22.34375 93.042969 23.394531 91.992188 23.394531 90.695312 C 23.394531 89.398438 22.34375 88.347656 21.046875 88.347656 C 19.75 88.347656 18.699219 89.398438 18.699219 90.695312 "/>
<path style=" stroke:none;fill-rule:nonzero;fill:rgb(0%,0%,0%);fill-opacity:1;" d="M 32.882812 81.609375 L 28.320312 81.609375 C 28.148438 81.609375 28.023438 81.570312 27.949219 81.492188 C 27.871094 81.417969 27.832031 81.292969 27.832031 81.121094 L 27.832031 72.351562 C 27.832031 72.179688 27.871094 72.054688 27.949219 71.976562 C 28.023438 71.902344 28.148438 71.863281 28.320312 71.863281 L 32.882812 71.863281 C 34.011719 71.863281 34.847656 72.089844 35.394531 72.539062 C 35.9375 72.992188 36.210938 73.6875 36.210938 74.625 L 36.210938 78.847656 C 36.210938 79.785156 35.9375 80.480469 35.394531 80.929688 C 34.847656 81.382812 34.011719 81.609375 32.882812 81.609375 Z M 32.515625 74.449219 L 30.90625 74.449219 L 30.90625 79.050781 L 32.515625 79.050781 C 32.734375 79.050781 32.894531 78.996094 32.996094 78.886719 C 33.101562 78.78125 33.152344 78.613281 33.152344 78.386719 L 33.152344 75.097656 C 33.152344 74.871094 33.101562 74.707031 32.996094 74.605469 C 32.894531 74.5 32.734375 74.449219 32.515625 74.449219 Z M 44.699219 81.609375 L 38.417969 81.609375 C 38.246094 81.609375 38.121094 81.570312 38.046875 81.492188 C 37.96875 81.417969 37.929688 81.292969 37.929688 81.121094 L 37.929688 72.351562 C 37.929688 72.179688 37.96875 72.054688 38.046875 71.976562 C 38.121094 71.902344 38.246094 71.863281 38.417969 71.863281 L 44.699219 71.863281 C 44.871094 71.863281 44.992188 71.902344 45.070312 71.976562 C 45.148438 72.054688 45.183594 72.179688 45.183594 72.351562 L 45.183594 73.933594 C 45.183594 74.105469 45.148438 74.230469 45.070312 74.304688 C 44.992188 74.382812 44.871094 74.421875 44.699219 74.421875 L 40.960938 74.421875 L 40.960938 75.464844 L 43.601562 75.464844 C 43.773438 75.464844 43.898438 75.5 43.972656 75.578125 C 44.050781 75.65625 44.089844 75.777344 44.089844 75.949219 L 44.089844 77.398438 C 44.089844 77.570312 44.050781 77.695312 43.972656 77.769531 C 43.898438 77.847656 43.773438 77.886719 43.601562 77.886719 L 40.960938 77.886719 L 40.960938 79.050781 L 44.699219 79.050781 C 44.871094 79.050781 44.992188 79.089844 45.070312 79.164062 C 45.148438 79.242188 45.183594 79.367188 45.183594 79.539062 L 45.183594 81.121094 C 45.183594 81.292969 45.148438 81.417969 45.070312 81.492188 C 44.992188 81.570312 44.871094 81.609375 44.699219 81.609375 Z M 53.550781 81.609375 L 47.269531 81.609375 C 47.097656 81.609375 46.972656 81.570312 46.898438 81.492188 C 46.820312 81.417969 46.78125 81.292969 46.78125 81.121094 L 46.78125 72.351562 C 46.78125 72.179688 46.820312 72.054688 46.898438 71.976562 C 46.972656 71.902344 47.097656 71.863281 47.269531 71.863281 L 53.550781 71.863281 C 53.722656 71.863281 53.847656 71.902344 53.921875 71.976562 C 54 72.054688 54.039062 72.179688 54.039062 72.351562 L 54.039062 73.933594 C 54.039062 74.105469 54 74.230469 53.921875 74.304688 C 53.847656 74.382812 53.722656 74.421875 53.550781 74.421875 L 49.816406 74.421875 L 49.816406 75.464844 L 52.453125 75.464844 C 52.625 75.464844 52.75 75.5 52.824219 75.578125 C 52.902344 75.65625 52.941406 75.777344 52.941406 75.949219 L 52.941406 77.398438 C 52.941406 77.570312 52.902344 77.695312 52.824219 77.769531 C 52.75 77.847656 52.625 77.886719 52.453125 77.886719 L 49.816406 77.886719 L 49.816406 79.050781 L 53.550781 79.050781 C 53.722656 79.050781 53.847656 79.089844 53.921875 79.164062 C 54 79.242188 54.039062 79.367188 54.039062 79.539062 L 54.039062 81.121094 C 54.039062 81.292969 54 81.417969 53.921875 81.492188 C 53.847656 81.570312 53.722656 81.609375 53.550781 81.609375 Z M 58.21875 81.609375 L 56.121094 81.609375 C 55.949219 81.609375 55.828125 81.570312 55.75 81.492188 C 55.671875 81.417969 55.632812 81.292969 55.632812 81.121094 L 55.632812 72.351562 C 55.632812 72.179688 55.671875 72.054688 55.75 71.976562 C 55.828125 71.902344 55.949219 71.863281 56.121094 71.863281 L 60.261719 71.863281 C 61.492188 71.863281 62.328125 72.105469 62.78125 72.59375 C 63.230469 73.082031 63.457031 73.71875 63.457031 74.503906 L 63.457031 76.234375 C 63.457031 77.019531 63.230469 77.65625 62.78125 78.144531 C 62.328125 78.628906 61.492188 78.875 60.261719 78.875 L 58.707031 78.875 L 58.707031 81.121094 C 58.707031 81.292969 58.667969 81.417969 58.59375 81.492188 C 58.515625 81.570312 58.390625 81.609375 58.21875 81.609375 Z M 59.898438 74.394531 L 58.679688 74.394531 L 58.679688 76.4375 L 59.898438 76.4375 C 60.160156 76.4375 60.332031 76.371094 60.414062 76.234375 C 60.492188 76.097656 60.535156 75.945312 60.535156 75.773438 L 60.535156 75.058594 C 60.535156 74.886719 60.492188 74.734375 60.414062 74.597656 C 60.332031 74.460938 60.160156 74.394531 59.898438 74.394531 Z M 72.242188 81.609375 L 65.351562 81.609375 C 65.179688 81.609375 65.058594 81.570312 64.980469 81.492188 C 64.902344 81.417969 64.867188 81.292969 64.867188 81.121094 L 64.867188 72.351562 C 64.867188 72.179688 64.902344 72.054688 64.980469 71.976562 C 65.058594 71.902344 65.179688 71.863281 65.351562 71.863281 L 67.449219 71.863281 C 67.621094 71.863281 67.746094 71.902344 67.824219 71.976562 C 67.898438 72.054688 67.9375 72.179688 67.9375 72.351562 L 67.9375 79.050781 L 69.792969 79.050781 L 69.792969 76.859375 C 69.792969 76.6875 69.832031 76.5625 69.90625 76.484375 C 69.984375 76.410156 70.109375 76.371094 70.28125 76.371094 L 72.242188 76.371094 C 72.414062 76.371094 72.539062 76.410156 72.613281 76.484375 C 72.691406 76.5625 72.730469 76.6875 72.730469 76.859375 L 72.730469 81.121094 C 72.730469 81.292969 72.691406 81.417969 72.613281 81.492188 C 72.539062 81.570312 72.414062 81.609375 72.242188 81.609375 Z M 78.535156 81.609375 L 76.34375 81.609375 C 76.171875 81.609375 76.046875 81.570312 75.972656 81.492188 C 75.894531 81.417969 75.855469 81.292969 75.855469 81.121094 L 75.855469 79.386719 L 73.785156 76.613281 C 73.578125 76.335938 73.441406 76.089844 73.371094 75.882812 C 73.304688 75.675781 73.269531 75.363281 73.269531 74.949219 L 73.269531 72.351562 C 73.269531 72.179688 73.308594 72.054688 73.386719 71.976562 C 73.460938 71.902344 73.585938 71.863281 73.757812 71.863281 L 75.84375 71.863281 C 76.015625 71.863281 76.136719 71.902344 76.214844 71.976562 C 76.292969 72.054688 76.328125 72.179688 76.328125 72.351562 L 76.328125 74.570312 C 76.328125 74.660156 76.335938 74.753906 76.34375 74.855469 C 76.351562 74.953125 76.386719 75.046875 76.453125 75.136719 L 77.074219 76.113281 C 77.121094 76.195312 77.167969 76.253906 77.214844 76.289062 C 77.265625 76.324219 77.328125 76.34375 77.398438 76.34375 L 77.535156 76.34375 C 77.605469 76.34375 77.667969 76.324219 77.71875 76.289062 C 77.765625 76.253906 77.8125 76.195312 77.859375 76.113281 L 78.480469 75.136719 C 78.546875 75.046875 78.582031 74.953125 78.589844 74.855469 C 78.597656 74.753906 78.605469 74.660156 78.605469 74.570312 L 78.605469 72.351562 C 78.605469 72.179688 78.640625 72.054688 78.71875 71.976562 C 78.796875 71.902344 78.917969 71.863281 79.089844 71.863281 L 81.109375 71.863281 C 81.277344 71.863281 81.402344 71.902344 81.480469 71.976562 C 81.554688 72.054688 81.59375 72.179688 81.59375 72.351562 L 81.59375 74.949219 C 81.59375 75.363281 81.558594 75.675781 81.488281 75.882812 C 81.414062 76.089844 81.277344 76.335938 81.082031 76.613281 L 79.023438 79.402344 L 79.023438 81.121094 C 79.023438 81.292969 78.984375 81.417969 78.90625 81.492188 C 78.832031 81.570312 78.707031 81.609375 78.535156 81.609375 Z M 87.660156 81.609375 L 83.382812 81.609375 C 83.210938 81.609375 83.085938 81.570312 83.007812 81.492188 C 82.933594 81.417969 82.894531 81.292969 82.894531 81.121094 L 82.894531 79.539062 C 82.894531 79.367188 82.933594 79.242188 83.007812 79.164062 C 83.085938 79.089844 83.210938 79.050781 83.382812 79.050781 L 87.023438 79.050781 C 87.140625 79.050781 87.226562 79.011719 87.285156 78.933594 C 87.34375 78.859375 87.375 78.765625 87.375 78.65625 C 87.375 78.503906 87.34375 78.390625 87.285156 78.320312 C 87.226562 78.246094 87.140625 78.207031 87.023438 78.199219 L 84.992188 77.914062 C 84.359375 77.824219 83.851562 77.617188 83.46875 77.289062 C 83.085938 76.964844 82.894531 76.425781 82.894531 75.667969 L 82.894531 74.246094 C 82.894531 73.476562 83.140625 72.890625 83.636719 72.480469 C 84.136719 72.070312 84.820312 71.863281 85.695312 71.863281 L 89.484375 71.863281 C 89.65625 71.863281 89.78125 71.902344 89.859375 71.976562 C 89.933594 72.054688 89.972656 72.179688 89.972656 72.351562 L 89.972656 73.960938 C 89.972656 74.132812 89.933594 74.257812 89.859375 74.332031 C 89.78125 74.410156 89.65625 74.449219 89.484375 74.449219 L 86.332031 74.449219 C 86.214844 74.449219 86.125 74.488281 86.0625 74.5625 C 86 74.640625 85.964844 74.738281 85.964844 74.855469 C 85.964844 74.972656 86 75.070312 86.0625 75.152344 C 86.125 75.234375 86.214844 75.277344 86.332031 75.289062 L 88.347656 75.558594 C 88.980469 75.648438 89.492188 75.855469 89.878906 76.179688 C 90.265625 76.503906 90.460938 77.046875 90.460938 77.804688 L 90.460938 79.226562 C 90.460938 79.992188 90.210938 80.582031 89.710938 80.992188 C 89.207031 81.402344 88.523438 81.609375 87.660156 81.609375 Z M 96.402344 81.609375 L 94.210938 81.609375 C 94.039062 81.609375 93.914062 81.570312 93.835938 81.492188 C 93.761719 81.417969 93.722656 81.292969 93.722656 81.121094 L 93.722656 74.476562 L 91.734375 74.476562 C 91.5625 74.476562 91.4375 74.4375 91.359375 74.359375 C 91.285156 74.285156 91.246094 74.160156 91.246094 73.988281 L 91.246094 72.351562 C 91.246094 72.179688 91.285156 72.054688 91.359375 71.976562 C 91.4375 71.902344 91.5625 71.863281 91.734375 71.863281 L 98.878906 71.863281 C 99.050781 71.863281 99.175781 71.902344 99.25 71.976562 C 99.328125 72.054688 99.367188 72.179688 99.367188 72.351562 L 99.367188 73.988281 C 99.367188 74.160156 99.328125 74.285156 99.25 74.359375 C 99.175781 74.4375 99.050781 74.476562 98.878906 74.476562 L 96.890625 74.476562 L 96.890625 81.121094 C 96.890625 81.292969 96.851562 81.417969 96.773438 81.492188 C 96.699219 81.570312 96.574219 81.609375 96.402344 81.609375 Z M 108.867188 74.433594 L 108.867188 79.050781 C 108.867188 79.464844 108.808594 79.84375 108.683594 80.179688 C 108.5625 80.519531 108.347656 80.808594 108.035156 81.046875 C 107.722656 81.285156 107.296875 81.472656 106.75 81.609375 C 106.203125 81.742188 105.511719 81.8125 104.671875 81.8125 C 103.832031 81.8125 103.136719 81.742188 102.585938 81.609375 C 102.039062 81.472656 101.605469 81.285156 101.296875 81.046875 C 100.984375 80.808594 100.765625 80.519531 100.644531 80.179688 C 100.523438 79.84375 100.460938 79.464844 100.460938 79.050781 L 100.460938 74.433594 C 100.460938 74.019531 100.523438 73.644531 100.644531 73.304688 C 100.765625 72.964844 100.984375 72.675781 101.296875 72.429688 C 101.605469 72.1875 102.039062 72 102.585938 71.863281 C 103.136719 71.726562 103.832031 71.660156 104.671875 71.660156 C 105.511719 71.660156 106.203125 71.726562 106.75 71.863281 C 107.296875 72 107.722656 72.1875 108.035156 72.429688 C 108.347656 72.675781 108.5625 72.964844 108.683594 73.304688 C 108.808594 73.644531 108.867188 74.019531 108.867188 74.433594 Z M 103.535156 74.921875 L 103.535156 78.5625 C 103.535156 78.742188 103.601562 78.894531 103.738281 79.015625 C 103.875 79.136719 104.183594 79.199219 104.671875 79.199219 C 105.160156 79.199219 105.472656 79.136719 105.605469 79.015625 C 105.742188 78.894531 105.808594 78.742188 105.808594 78.5625 L 105.808594 74.921875 C 105.808594 74.75 105.742188 74.605469 105.605469 74.480469 C 105.472656 74.359375 105.160156 74.300781 104.671875 74.300781 C 104.183594 74.300781 103.875 74.359375 103.738281 74.480469 C 103.601562 74.605469 103.535156 74.75 103.535156 74.921875 Z M 117.070312 81.609375 L 113.769531 81.609375 C 112.640625 81.609375 111.804688 81.382812 111.257812 80.929688 C 110.710938 80.480469 110.4375 79.785156 110.4375 78.847656 L 110.4375 74.636719 C 110.4375 73.699219 110.710938 73.003906 111.257812 72.546875 C 111.804688 72.089844 112.640625 71.863281 113.769531 71.863281 L 117.070312 71.863281 C 117.242188 71.863281 117.367188 71.902344 117.441406 71.976562 C 117.519531 72.054688 117.558594 72.179688 117.558594 72.351562 L 117.558594 73.988281 C 117.558594 74.160156 117.519531 74.285156 117.441406 74.359375 C 117.367188 74.4375 117.242188 74.476562 117.070312 74.476562 L 114.351562 74.476562 C 114.070312 74.476562 113.863281 74.53125 113.726562 74.644531 C 113.589844 74.757812 113.523438 74.925781 113.523438 75.152344 L 113.523438 78.375 C 113.523438 78.597656 113.589844 78.765625 113.726562 78.867188 C 113.863281 78.972656 114.070312 79.023438 114.351562 79.023438 L 117.070312 79.023438 C 117.242188 79.023438 117.367188 79.0625 117.441406 79.136719 C 117.519531 79.214844 117.558594 79.339844 117.558594 79.511719 L 117.558594 81.121094 C 117.558594 81.292969 117.519531 81.417969 117.441406 81.492188 C 117.367188 81.570312 117.242188 81.609375 117.070312 81.609375 Z M 121.671875 81.609375 L 119.574219 81.609375 C 119.402344 81.609375 119.277344 81.570312 119.203125 81.492188 C 119.125 81.417969 119.085938 81.292969 119.085938 81.121094 L 119.085938 72.351562 C 119.085938 72.179688 119.125 72.054688 119.203125 71.976562 C 119.277344 71.902344 119.402344 71.863281 119.574219 71.863281 L 121.671875 71.863281 C 121.84375 71.863281 121.96875 71.902344 122.042969 71.976562 C 122.121094 72.054688 122.160156 72.179688 122.160156 72.351562 L 122.160156 75.464844 L 122.699219 75.464844 L 124.09375 72.308594 C 124.15625 72.148438 124.242188 72.03125 124.351562 71.964844 C 124.460938 71.898438 124.601562 71.863281 124.773438 71.863281 L 126.855469 71.863281 C 127.007812 71.863281 127.113281 71.902344 127.167969 71.976562 C 127.222656 72.054688 127.21875 72.164062 127.152344 72.308594 L 125.773438 75.464844 C 126.277344 75.492188 126.683594 75.667969 126.984375 76 C 127.285156 76.328125 127.4375 76.761719 127.4375 77.304688 L 127.4375 81.121094 C 127.4375 81.292969 127.398438 81.417969 127.324219 81.492188 C 127.246094 81.570312 127.121094 81.609375 126.949219 81.609375 L 124.867188 81.609375 C 124.695312 81.609375 124.570312 81.570312 124.496094 81.492188 C 124.417969 81.417969 124.378906 81.292969 124.378906 81.121094 L 124.378906 78.480469 C 124.378906 78.335938 124.34375 78.222656 124.269531 78.144531 C 124.199219 78.0625 124.089844 78.023438 123.945312 78.023438 L 122.160156 78.023438 L 122.160156 81.121094 C 122.160156 81.292969 122.121094 81.417969 122.042969 81.492188 C 121.96875 81.570312 121.84375 81.609375 121.671875 81.609375 Z M 135.953125 81.609375 L 129.671875 81.609375 C 129.5 81.609375 129.375 81.570312 129.300781 81.492188 C 129.222656 81.417969 129.183594 81.292969 129.183594 81.121094 L 129.183594 72.351562 C 129.183594 72.179688 129.222656 72.054688 129.300781 71.976562 C 129.375 71.902344 129.5 71.863281 129.671875 71.863281 L 135.953125 71.863281 C 136.125 71.863281 136.246094 71.902344 136.324219 71.976562 C 136.402344 72.054688 136.4375 72.179688 136.4375 72.351562 L 136.4375 73.933594 C 136.4375 74.105469 136.402344 74.230469 136.324219 74.304688 C 136.246094 74.382812 136.125 74.421875 135.953125 74.421875 L 132.214844 74.421875 L 132.214844 75.464844 L 134.855469 75.464844 C 135.027344 75.464844 135.152344 75.5 135.226562 75.578125 C 135.304688 75.65625 135.34375 75.777344 135.34375 75.949219 L 135.34375 77.398438 C 135.34375 77.570312 135.304688 77.695312 135.226562 77.769531 C 135.152344 77.847656 135.027344 77.886719 134.855469 77.886719 L 132.214844 77.886719 L 132.214844 79.050781 L 135.953125 79.050781 C 136.125 79.050781 136.246094 79.089844 136.324219 79.164062 C 136.402344 79.242188 136.4375 79.367188 136.4375 79.539062 L 136.4375 81.121094 C 136.4375 81.292969 136.402344 81.417969 136.324219 81.492188 C 136.246094 81.570312 136.125 81.609375 135.953125 81.609375 Z M 143.085938 81.609375 L 138.523438 81.609375 C 138.351562 81.609375 138.226562 81.570312 138.152344 81.492188 C 138.074219 81.417969 138.035156 81.292969 138.035156 81.121094 L 138.035156 72.351562 C 138.035156 72.179688 138.074219 72.054688 138.152344 71.976562 C 138.226562 71.902344 138.351562 71.863281 138.523438 71.863281 L 143.085938 71.863281 C 144.210938 71.863281 145.050781 72.089844 145.59375 72.539062 C 146.140625 72.992188 146.414062 73.6875 146.414062 74.625 L 146.414062 78.847656 C 146.414062 79.785156 146.140625 80.480469 145.59375 80.929688 C 145.050781 81.382812 144.210938 81.609375 143.085938 81.609375 Z M 142.71875 74.449219 L 141.109375 74.449219 L 141.109375 79.050781 L 142.71875 79.050781 C 142.9375 79.050781 143.097656 78.996094 143.199219 78.886719 C 143.304688 78.78125 143.355469 78.613281 143.355469 78.386719 L 143.355469 75.097656 C 143.355469 74.871094 143.304688 74.707031 143.199219 74.605469 C 143.097656 74.5 142.9375 74.449219 142.71875 74.449219 Z M 142.71875 74.449219 "/>
</g>
</svg>
